<?xml version="1.0" encoding="UTF-8" standalone="no"?>
<!--
  - Copyright 2016-present the IoT DC3 original author or authors.
  -
  - Licensed under the Apache License, Version 2.0 (the "License");
  - you may not use this file except in compliance with the License.
  - You may obtain a copy of the License at
  -
  -      https://www.apache.org/licenses/LICENSE-2.0
  -
  - Unless required by applicable law or agreed to in writing, software
  - distributed under the License is distributed on an "AS IS" BASIS,
  - WITHOUT WARRANTIES OR CONDITIONS OF ANY KIND, either express or implied.
  - See the License for the specific language governing permissions and
  - limitations under the License.
  -->

<svg xmlns:xlink="http://www.w3.org/1999/xlink"
     viewBox="0 0 1429.86 1290.92"
     xmlns="http://www.w3.org/2000/svg" id="_Layer_2">
    <defs>
        <style>
            .cls-1 {
            fill: #f5f7fa;
            }

            .cls-1, .cls-2, .cls-3, .cls-4, .cls-5, .cls-6, .cls-7, .cls-8, .cls-9, .cls-10, .cls-11, .cls-12 {
            stroke-width: 0px;
            }

            .cls-2 {
            fill: #578fd3;
            }

            .cls-3 {
            fill: url(#_GradualChange_10);
            }

            .cls-4 {
            fill: #eefaff;
            }

            .cls-5 {
            fill: url(#_GradualChange_64);
            }

            .cls-6 {
            fill: url(#_GradualChange_15-2);
            }

            .cls-7 {
            fill: url(#_GradualChange_15);
            }

            .cls-8 {
            fill: #e9f0f4;
            }

            .cls-9 {
            fill: #e1eaef;
            }

            .cls-10 {
            fill: url(#_GradualChange_56);
            }

            .cls-11 {
            fill: #ced6dd;
            opacity: .3;
            }

            .cls-12 {
            fill: url(#_GradualChange_14);
            }
        </style>
        <linearGradient gradientUnits="userSpaceOnUse" y2="995.69" x2="714.93" y1="1290.92" x1="714.93"
                        id="_GradualChange_10">
            <stop stop-opacity=".5" stop-color="#f7fbff" offset="0"></stop>
            <stop stop-color="#ecf5ff" offset="1"></stop>
        </linearGradient>
        <linearGradient gradientUnits="userSpaceOnUse" y2="66.57" x2="1007.27" y1="66.57" x1="1227.25"
                        id="_GradualChange_15">
            <stop stop-color="#f7fbff" offset="0"></stop>
            <stop stop-color="#ecf5ff" offset="1"></stop>
        </linearGradient>
        <linearGradient xlink:href="#_GradualChange_15" y2="283.66" x2="191.03" y1="283.66" x1="344.06"
                        id="_GradualChange_15-2"></linearGradient>
        <linearGradient gradientUnits="userSpaceOnUse" y2="457.32" x2="694.67" y1="784.79" x1="694.67"
                        id="_GradualChange_56">
            <stop stop-color="#84bbf1" offset="0"></stop>
            <stop stop-color="#4095e6" offset="1"></stop>
        </linearGradient>
        <linearGradient gradientUnits="userSpaceOnUse" y2="619.41" x2="694.67" y1="833.6" x1="694.67"
                        id="_GradualChange_14">
            <stop stop-color="#dcedff" offset="0"></stop>
            <stop stop-color="#4095e6" offset="1"></stop>
        </linearGradient>
        <linearGradient gradientUnits="userSpaceOnUse" y2="758.35" x2="700.46" y1="1042" x1="700.46"
                        id="_GradualChange_64">
            <stop stop-opacity="0" stop-color="#eefaff" offset="0"></stop>
            <stop stop-color="#eefaff" offset="1"></stop>
        </linearGradient>
    </defs>
    <g id="_Layer_1-2">
        <g>
            <ellipse ry="147.62" rx="714.93" cy="1143.31" cx="714.93" class="cls-3"></ellipse>
            <g>
                <path d="m1162.16,989.3h13.94c1.92,0,3.48,1.56,3.48,3.48h0v62.72c0,3.85-3.12,6.97-6.97,6.97h-6.97c-3.85,0-6.97-3.12-6.97-6.97h0v-62.72c0-1.92,1.56-3.48,3.48-3.48h0Z"
                      class="cls-8"></path>
                <path d="m1169.13,846.43v174.23l-69.69-31.36,69.69-142.87Z" class="cls-9"></path>
                <path d="m1169.13,846.43v174.23l69.69-31.36-69.69-142.87Z" class="cls-1"></path>
            </g>
            <g>
                <path d="m1263.74,988.5h18.5c2.55,0,4.63,2.07,4.63,4.63h0v83.25c0,5.11-4.14,9.25-9.25,9.25h-9.25c-5.11,0-9.25-4.14-9.25-9.25h0v-83.25c0-2.55,2.07-4.63,4.63-4.63h0Z"
                      class="cls-8"></path>
                <path d="m1272.99,798.87v231.26l-92.5-41.63,92.5-189.63Z" class="cls-9"></path>
                <path d="m1272.99,798.87v231.26l92.5-41.63-92.5-189.63Z" class="cls-1"></path>
            </g>
            <g>
                <path d="m244.89,976.92h18.5c2.55,0,4.63,2.07,4.63,4.63h0v83.25c0,5.11-4.14,9.25-9.25,9.25h-9.25c-5.11,0-9.25-4.14-9.25-9.25h0v-83.25c0-2.55,2.07-4.63,4.63-4.63h0Z"
                      class="cls-8"></path>
                <path d="m254.14,787.29v231.26l-92.5-41.63,92.5-189.63Z" class="cls-9"></path>
                <path d="m254.14,787.29v231.26l92.5-41.63-92.5-189.63Z" class="cls-1"></path>
            </g>
            <path d="m1204.13,65.71c-.08-.03-.14-.11-.14-.19.03-36.65-28.46-65.52-63.58-65.52-20.69,0-39.01,9.91-50.64,25.19-.05.07-.14.1-.22.07-4.03-1.34-8.33-2.1-12.81-2.1-22.38,0-40.52,18.14-40.52,40.52,0,.17.02.34.03.52-16.9,2.83-29.68,17.82-28.94,35.68.78,18.91,17.53,33.27,36.45,33.27h147.36c17.94,0,33.97-12.99,35.93-30.82,1.83-16.77-8.29-31.42-22.91-36.62Z"
                  class="cls-7"></path>
            <path d="m327.98,283.05c-.06-.02-.09-.07-.09-.13.02-25.49-19.8-45.58-44.23-45.58-14.39,0-27.14,6.89-35.23,17.52-.04.05-.1.07-.16.05-2.8-.94-5.79-1.46-8.91-1.46-15.57,0-28.19,12.62-28.19,28.19,0,.12.02.24.02.36-11.76,1.97-20.64,12.39-20.13,24.82.54,13.15,12.19,23.14,25.36,23.14h102.51c12.48,0,23.63-9.04,24.99-21.44,1.28-11.67-5.77-21.86-15.93-25.47Z"
                  class="cls-6"></path>
            <path d="m353.12,1169.86c0,13,161.58,23.63,361.81,23.63s361.81-10.64,361.81-23.63-161.61-23.65-361.81-23.65c-200.23-.09-361.81,10.04-361.81,23.63"
                  class="cls-11"></path>
            <path d="m926.22,688.88c0,127.88-463.11,127.88-463.11,0s103.67-231.56,231.56-231.56,231.56,103.67,231.56,231.56Z"
                  class="cls-10"></path>
            <ellipse ry="107.09" rx="411.01" cy="726.51" cx="694.67" class="cls-12"></ellipse>
            <ellipse ry="39.95" rx="237.34" cy="734.61" cx="694.67" class="cls-4"></ellipse>
            <polygon points="932.01 1042 468.9 1042 526.79 758.35 868.33 758.35 932.01 1042" class="cls-5"></polygon>
            <g>
                <path d="m517.69,975.35l53.75-117.32h37.19l-52.3,115.89h78.33v31.67h-116.97v-30.23Zm70.43-45.58h32.87v102.69h-32.87v-102.69Z"
                      class="cls-2"></path>
                <path d="m661.58,899.43c-8.88-8.76-13.31-20.89-13.31-36.41v-79.29c0-15.67,4.45-27.85,13.38-36.53,8.91-8.67,21.84-13.01,38.8-13.01s30,4.32,38.87,12.95c8.88,8.64,13.32,20.83,13.32,36.59v79.29c0,15.68-4.47,27.85-13.38,36.53-8.92,8.68-21.86,13.02-38.81,13.02s-30-4.38-38.87-13.14Zm53.51-25.31c3.11-4.52,4.67-11.02,4.67-19.49v-62.5c0-8.48-1.56-14.98-4.67-19.5-3.12-4.52-8-6.78-14.64-6.78s-11.52,2.26-14.63,6.78c-3.12,4.52-4.68,11.02-4.68,19.5v62.5c0,8.48,1.56,14.98,4.68,19.49,3.11,4.52,7.99,6.78,14.63,6.78s11.52-2.26,14.64-6.78Z"
                      class="cls-2"></path>
                <path d="m769.86,940.61l53.74-117.32h37.19l-52.3,115.89h78.34v31.67h-116.97v-30.23Zm70.42-45.58h32.87v102.69h-32.87v-102.69Z"
                      class="cls-2"></path>
            </g>
        </g>
    </g>
</svg>
